<svg width="64" height="32" viewBox="0 0 64 32" fill="none" xmlns="http://www.w3.org/2000/svg">
<g clip-path="url(#clip0_227_1441)">
<rect width="64" height="32" rx="16" fill="#EBEBEB"/>
<path d="M32 26C37.5228 26 42 21.5228 42 16C42 10.4772 37.5228 6 32 6C26.4772 6 22 10.4772 22 16C22 21.5228 26.4772 26 32 26Z" stroke="black" stroke-width="2" stroke-linecap="round" stroke-linejoin="round"/>
<path d="M32 19C33.6569 19 35 17.6569 35 16C35 14.3431 33.6569 13 32 13C30.3431 13 29 14.3431 29 16C29 17.6569 30.3431 19 32 19Z" stroke="black" stroke-width="2" stroke-linecap="round" stroke-linejoin="round"/>
</g>
<defs>
<clipPath id="clip0_227_1441">
<rect width="64" height="32" rx="16" fill="white"/>
</clipPath>
</defs>
</svg>
