<svg width="462" height="84" viewBox="0 0 462 84" fill="none" xmlns="http://www.w3.org/2000/svg">
<path d="M58.5 58.5L46.5 51L42 55L47 68.5C51.5854 65.7709 55.3165 63.2347 58.5 58.5Z" fill="#E5E5E5"/>
<path d="M22.5 32.5L10.5 25.5C13.6251 20.943 16.9331 18.399 22 15.5L26.5 29L22.5 32.5Z" fill="#E5E5E5"/>
<path d="M58.5 58.5L46.5 51L42 55L47 68.5C51.5854 65.7709 55.3165 63.2347 58.5 58.5Z" stroke="#E5E5E5"/>
<path d="M22.5 32.5L10.5 25.5C13.6251 20.943 16.9331 18.399 22 15.5L26.5 29L22.5 32.5Z" stroke="#E5E5E5"/>
<path fill-rule="evenodd" clip-rule="evenodd" d="M27.9856 30.9886C31.984 28.5407 37.017 28.5407 41.0153 30.9887C49.1062 35.9423 48.9277 47.7559 40.6908 52.4627C36.855 54.6546 32.146 54.6546 28.3102 52.4628C20.0732 47.756 19.8946 35.9422 27.9856 30.9886ZM39.4347 47.1923C42.2322 44.4665 42.2896 39.9889 39.563 37.1923C36.788 34.3462 32.213 34.3462 29.438 37.1923C26.7114 39.9889 26.7688 44.4665 29.5663 47.1923C32.3118 49.8675 36.6892 49.8675 39.4347 47.1923Z" fill="#E5E5E5" stroke="#E5E5E5"/>
<rect x="5.5" y="13" width="58" height="58" rx="29" stroke="#E5E5E5" stroke-width="3"/>
<path d="M111.994 55H98.4766V53.6289C98.875 53.5938 99.3613 53.5352 99.9355 53.4531C100.521 53.3711 100.92 53.2832 101.131 53.1895C101.564 53.0137 101.875 52.7734 102.062 52.4688C102.25 52.1641 102.344 51.7773 102.344 51.3086V32.6758L93.7656 54.5957H91.5508C91.4453 54.209 91.1816 53.4414 90.7598 52.293C90.3496 51.1445 90.0156 50.2246 89.7578 49.5332L83.4473 32.3945V47.5645C83.4473 49.0176 83.541 50.125 83.7285 50.8867C83.9277 51.6367 84.2441 52.1875 84.6777 52.5391C84.9707 52.7852 85.4922 53.0195 86.2422 53.2422C87.0039 53.4648 87.5371 53.5938 87.8418 53.6289V55H77.1191V53.6289C77.4121 53.5938 77.8867 53.5176 78.543 53.4004C79.2109 53.2715 79.7559 53.0547 80.1777 52.75C80.6465 52.4219 80.9629 51.8711 81.127 51.0977C81.291 50.3125 81.373 49.1992 81.373 47.7578V35.4004C81.373 34.6504 81.2793 34.0293 81.0918 33.5371C80.9043 33.0332 80.623 32.6348 80.248 32.3418C79.7793 31.9785 79.2988 31.7441 78.8066 31.6387C78.3145 31.5332 77.8164 31.4629 77.3125 31.4277V30.0566H88.791L94.9434 46.5273L100.129 33.1504C100.305 32.6582 100.475 32.0723 100.639 31.3926C100.803 30.7129 100.891 30.2676 100.902 30.0566H111.959V31.4277C111.584 31.4512 111.191 31.498 110.781 31.5684C110.371 31.6387 109.979 31.7324 109.604 31.8496C109.146 32.002 108.842 32.2422 108.689 32.5703C108.549 32.8984 108.479 33.2617 108.479 33.6602V51.3262C108.479 51.748 108.549 52.1055 108.689 52.3984C108.842 52.6797 109.146 52.9258 109.604 53.1367C109.838 53.2422 110.219 53.3418 110.746 53.4355C111.285 53.5293 111.701 53.5938 111.994 53.6289V55ZM141.131 55H127.543V53.6289C128.176 53.582 128.92 53.4707 129.775 53.2949C130.631 53.1074 131.059 52.8789 131.059 52.6094C131.059 52.5156 131.047 52.4102 131.023 52.293C131.012 52.1758 130.965 52.0176 130.883 51.8184L128.756 46.6504H120.143C119.943 47.1309 119.721 47.6934 119.475 48.3379C119.24 48.9824 119.035 49.5566 118.859 50.0605C118.637 50.7168 118.502 51.1914 118.455 51.4844C118.42 51.7773 118.402 51.9824 118.402 52.0996C118.402 52.4746 118.684 52.7969 119.246 53.0664C119.82 53.3242 120.77 53.5117 122.094 53.6289V55H111.863V53.6289C112.25 53.6055 112.684 53.5469 113.164 53.4531C113.656 53.3477 114.043 53.207 114.324 53.0312C114.805 52.75 115.209 52.4043 115.537 51.9941C115.877 51.584 116.158 51.0977 116.381 50.5352C117.74 47.2422 119.1 43.9434 120.459 40.6387C121.83 37.334 123.342 33.6895 124.994 29.7051H128.51C130.807 35.3535 132.605 39.8184 133.906 43.0996C135.207 46.3809 136.314 49.0996 137.229 51.2559C137.381 51.6074 137.574 51.9297 137.809 52.2227C138.043 52.5039 138.377 52.7734 138.811 53.0312C139.139 53.2188 139.52 53.3594 139.953 53.4531C140.387 53.5469 140.779 53.6055 141.131 53.6289V55ZM128.035 44.9102L124.414 35.875L120.846 44.9102H128.035ZM167.209 31.4277C166.787 31.4746 166.4 31.5508 166.049 31.6562C165.697 31.7617 165.363 31.9082 165.047 32.0957C164.543 32.377 164.092 32.7402 163.693 33.1855C163.307 33.6191 162.926 34.1055 162.551 34.6445C161.789 35.7578 160.986 36.9707 160.143 38.2832C159.311 39.584 158.402 41.0195 157.418 42.5898C156.773 43.5859 156.375 44.3535 156.223 44.8926C156.082 45.4199 156.012 46.3398 156.012 47.6523V51.1855C156.012 51.6074 156.088 51.9766 156.24 52.293C156.404 52.6094 156.709 52.8672 157.154 53.0664C157.354 53.1484 157.775 53.2598 158.42 53.4004C159.064 53.5293 159.539 53.6055 159.844 53.6289V55H145.939V53.6289C146.268 53.6055 146.736 53.5586 147.346 53.4883C147.967 53.418 148.4 53.3359 148.646 53.2422C149.08 53.0547 149.373 52.8086 149.525 52.5039C149.689 52.1875 149.771 51.8066 149.771 51.3613V46.9668C149.771 46.5801 149.766 46.2402 149.754 45.9473C149.742 45.6543 149.701 45.4082 149.631 45.209C149.549 44.9863 149.408 44.7051 149.209 44.3652C149.01 44.0137 148.752 43.5625 148.436 43.0117C147.533 41.4297 146.66 39.9297 145.816 38.5117C144.973 37.0938 144.17 35.7637 143.408 34.5215C143.01 33.877 142.605 33.3613 142.195 32.9746C141.797 32.5762 141.387 32.2539 140.965 32.0078C140.648 31.832 140.262 31.6973 139.805 31.6035C139.359 31.5098 138.955 31.4512 138.592 31.4277V30.0566H152.883V31.4277C151.57 31.4629 150.686 31.5566 150.229 31.709C149.771 31.8496 149.543 32.0488 149.543 32.3066C149.543 32.4355 149.625 32.6934 149.789 33.0801C149.965 33.4668 150.27 34.0645 150.703 34.873C151.102 35.6348 151.682 36.6836 152.443 38.0195C153.217 39.3555 154.143 40.9199 155.221 42.7129C157.447 39.1855 158.977 36.7246 159.809 35.3301C160.641 33.9238 161.057 33.0625 161.057 32.7461C161.057 32.3477 160.811 32.043 160.318 31.832C159.838 31.6211 159.053 31.4863 157.963 31.4277V30.0566H167.209V31.4277ZM197.189 55H183.707V53.6289C184 53.6055 184.428 53.5703 184.99 53.5234C185.553 53.4766 185.939 53.4062 186.15 53.3125C186.584 53.1367 186.883 52.9082 187.047 52.627C187.211 52.334 187.293 51.9648 187.293 51.5195V42.9238H176.641V51.3262C176.641 51.7246 176.723 52.082 176.887 52.3984C177.062 52.7148 177.355 52.9609 177.766 53.1367C177.988 53.2305 178.369 53.3301 178.908 53.4355C179.447 53.541 179.887 53.6055 180.227 53.6289V55H166.744V53.6289C167.037 53.6172 167.465 53.582 168.027 53.5234C168.602 53.4531 169.018 53.3711 169.275 53.2773C169.697 53.125 169.99 52.8965 170.154 52.5918C170.318 52.2754 170.4 51.9062 170.4 51.4844V33.8359C170.4 33.4258 170.324 33.0801 170.172 32.7988C170.031 32.5176 169.732 32.2715 169.275 32.0605C168.936 31.9082 168.49 31.7734 167.939 31.6562C167.389 31.5273 166.99 31.4512 166.744 31.4277V30.0566H180.227V31.4277C179.863 31.4512 179.43 31.5098 178.926 31.6035C178.422 31.6973 178.035 31.7852 177.766 31.8672C177.309 32.0195 177.004 32.2656 176.852 32.6055C176.711 32.9336 176.641 33.2852 176.641 33.6602V41.1133H187.293V33.8359C187.293 33.4258 187.217 33.0801 187.064 32.7988C186.912 32.5176 186.607 32.2715 186.15 32.0605C185.846 31.9199 185.436 31.791 184.92 31.6738C184.416 31.5449 184.012 31.4629 183.707 31.4277V30.0566H197.189V31.4277C196.814 31.4512 196.393 31.5039 195.924 31.5859C195.455 31.6562 195.033 31.75 194.658 31.8672C194.213 32.0195 193.914 32.2598 193.762 32.5879C193.609 32.916 193.533 33.2734 193.533 33.6602V51.3262C193.533 51.748 193.609 52.1055 193.762 52.3984C193.914 52.6914 194.213 52.9375 194.658 53.1367C194.939 53.2539 195.344 53.3594 195.871 53.4531C196.41 53.5469 196.85 53.6055 197.189 53.6289V55ZM221.229 36.4199H219.893C219.553 35.4707 218.967 34.5098 218.135 33.5371C217.303 32.5645 216.477 31.9902 215.656 31.8145C215.305 31.7324 214.812 31.6855 214.18 31.6738C213.559 31.6504 213.043 31.6387 212.633 31.6387H209.012V41.2715H211.578C212.223 41.2715 212.809 41.1953 213.336 41.043C213.863 40.8906 214.344 40.5977 214.777 40.1641C215.047 39.8945 215.316 39.4199 215.586 38.7402C215.867 38.0605 216.049 37.4688 216.131 36.9648H217.467V47.3711H216.131C216.061 46.8789 215.879 46.2637 215.586 45.5254C215.305 44.7754 215.035 44.2598 214.777 43.9785C214.391 43.5566 213.934 43.2695 213.406 43.1172C212.879 42.9531 212.27 42.8711 211.578 42.8711H209.012V50.0605C209.012 50.8105 209.064 51.4082 209.17 51.8535C209.287 52.2871 209.498 52.6211 209.803 52.8555C210.096 53.0781 210.494 53.2246 210.998 53.2949C211.514 53.3652 212.211 53.4004 213.09 53.4004C213.5 53.4004 213.992 53.3945 214.566 53.3828C215.141 53.3711 215.645 53.3359 216.078 53.2773C216.57 53.2188 217.027 53.1309 217.449 53.0137C217.883 52.8965 218.205 52.7266 218.416 52.5039C218.979 51.9297 219.611 51.0566 220.314 49.8848C221.018 48.7012 221.48 47.8164 221.703 47.2305H222.986L222.512 55H199.115V53.6289C199.443 53.6055 199.889 53.5586 200.451 53.4883C201.014 53.418 201.412 53.3359 201.646 53.2422C202.092 53.0547 202.391 52.8203 202.543 52.5391C202.695 52.2461 202.771 51.877 202.771 51.4316V33.8359C202.771 33.4141 202.707 33.0684 202.578 32.7988C202.449 32.5176 202.139 32.2656 201.646 32.043C201.342 31.9023 200.914 31.7734 200.363 31.6562C199.812 31.5391 199.396 31.4629 199.115 31.4277V30.0566H221.229V36.4199ZM258.873 55H245.355V53.6289C245.754 53.5938 246.24 53.5352 246.814 53.4531C247.4 53.3711 247.799 53.2832 248.01 53.1895C248.443 53.0137 248.754 52.7734 248.941 52.4688C249.129 52.1641 249.223 51.7773 249.223 51.3086V32.6758L240.645 54.5957H238.43C238.324 54.209 238.061 53.4414 237.639 52.293C237.229 51.1445 236.895 50.2246 236.637 49.5332L230.326 32.3945V47.5645C230.326 49.0176 230.42 50.125 230.607 50.8867C230.807 51.6367 231.123 52.1875 231.557 52.5391C231.85 52.7852 232.371 53.0195 233.121 53.2422C233.883 53.4648 234.416 53.5938 234.721 53.6289V55H223.998V53.6289C224.291 53.5938 224.766 53.5176 225.422 53.4004C226.09 53.2715 226.635 53.0547 227.057 52.75C227.525 52.4219 227.842 51.8711 228.006 51.0977C228.17 50.3125 228.252 49.1992 228.252 47.7578V35.4004C228.252 34.6504 228.158 34.0293 227.971 33.5371C227.783 33.0332 227.502 32.6348 227.127 32.3418C226.658 31.9785 226.178 31.7441 225.686 31.6387C225.193 31.5332 224.695 31.4629 224.191 31.4277V30.0566H235.67L241.822 46.5273L247.008 33.1504C247.184 32.6582 247.354 32.0723 247.518 31.3926C247.682 30.7129 247.77 30.2676 247.781 30.0566H258.838V31.4277C258.463 31.4512 258.07 31.498 257.66 31.5684C257.25 31.6387 256.857 31.7324 256.482 31.8496C256.025 32.002 255.721 32.2422 255.568 32.5703C255.428 32.8984 255.357 33.2617 255.357 33.6602V51.3262C255.357 51.748 255.428 52.1055 255.568 52.3984C255.721 52.6797 256.025 52.9258 256.482 53.1367C256.717 53.2422 257.098 53.3418 257.625 53.4355C258.164 53.5293 258.58 53.5938 258.873 53.6289V55ZM298.215 55H288.652C287 52.4688 285.623 50.4531 284.521 48.9531C283.432 47.4531 282.072 45.7188 280.443 43.75H279.477V51.3262C279.477 51.748 279.553 52.1055 279.705 52.3984C279.869 52.6914 280.174 52.9375 280.619 53.1367C280.842 53.2305 281.188 53.3301 281.656 53.4355C282.137 53.5293 282.547 53.5938 282.887 53.6289V55H269.58V53.6289C269.92 53.5938 270.365 53.5469 270.916 53.4883C271.479 53.418 271.877 53.3359 272.111 53.2422C272.557 53.0547 272.855 52.8203 273.008 52.5391C273.16 52.2461 273.236 51.877 273.236 51.4316V33.8359C273.236 33.4141 273.172 33.0625 273.043 32.7812C272.914 32.5 272.604 32.2539 272.111 32.043C271.736 31.8906 271.291 31.7617 270.775 31.6562C270.271 31.5508 269.873 31.4746 269.58 31.4277V30.0566H283.572C286.701 30.0566 289.074 30.5488 290.691 31.5332C292.32 32.5059 293.135 33.9824 293.135 35.9629C293.135 37.709 292.631 39.1152 291.623 40.1816C290.627 41.2363 289.104 42.0625 287.053 42.6602C287.85 43.6914 288.775 44.8867 289.83 46.2461C290.896 47.6055 292.004 48.9941 293.152 50.4121C293.516 50.8691 294.008 51.4316 294.629 52.0996C295.262 52.7559 295.818 53.1602 296.299 53.3125C296.568 53.3945 296.908 53.4648 297.318 53.5234C297.74 53.582 298.039 53.6172 298.215 53.6289V55ZM286.244 36.4551C286.244 34.791 285.775 33.5781 284.838 32.8164C283.912 32.043 282.588 31.6562 280.865 31.6562H279.477V42.0977H280.812C282.535 42.0977 283.871 41.6465 284.82 40.7441C285.77 39.8418 286.244 38.4121 286.244 36.4551ZM319.916 36.4199H318.58C318.24 35.4707 317.654 34.5098 316.822 33.5371C315.99 32.5645 315.164 31.9902 314.344 31.8145C313.992 31.7324 313.5 31.6855 312.867 31.6738C312.246 31.6504 311.73 31.6387 311.32 31.6387H307.699V41.2715H310.266C310.91 41.2715 311.496 41.1953 312.023 41.043C312.551 40.8906 313.031 40.5977 313.465 40.1641C313.734 39.8945 314.004 39.4199 314.273 38.7402C314.555 38.0605 314.736 37.4688 314.818 36.9648H316.154V47.3711H314.818C314.748 46.8789 314.566 46.2637 314.273 45.5254C313.992 44.7754 313.723 44.2598 313.465 43.9785C313.078 43.5566 312.621 43.2695 312.094 43.1172C311.566 42.9531 310.957 42.8711 310.266 42.8711H307.699V50.0605C307.699 50.8105 307.752 51.4082 307.857 51.8535C307.975 52.2871 308.186 52.6211 308.49 52.8555C308.783 53.0781 309.182 53.2246 309.686 53.2949C310.201 53.3652 310.898 53.4004 311.777 53.4004C312.188 53.4004 312.68 53.3945 313.254 53.3828C313.828 53.3711 314.332 53.3359 314.766 53.2773C315.258 53.2188 315.715 53.1309 316.137 53.0137C316.57 52.8965 316.893 52.7266 317.104 52.5039C317.666 51.9297 318.299 51.0566 319.002 49.8848C319.705 48.7012 320.168 47.8164 320.391 47.2305H321.674L321.199 55H297.803V53.6289C298.131 53.6055 298.576 53.5586 299.139 53.4883C299.701 53.418 300.1 53.3359 300.334 53.2422C300.779 53.0547 301.078 52.8203 301.23 52.5391C301.383 52.2461 301.459 51.877 301.459 51.4316V33.8359C301.459 33.4141 301.395 33.0684 301.266 32.7988C301.137 32.5176 300.826 32.2656 300.334 32.043C300.029 31.9023 299.602 31.7734 299.051 31.6562C298.5 31.5391 298.084 31.4629 297.803 31.4277V30.0566H319.916V36.4199ZM336.361 55.668C334.533 55.668 332.822 55.375 331.229 54.7891C329.635 54.1914 328.246 53.3301 327.062 52.2051C325.902 51.1035 324.988 49.7441 324.32 48.127C323.652 46.498 323.318 44.7109 323.318 42.7656C323.318 40.832 323.652 39.0449 324.32 37.4043C325 35.752 325.949 34.3223 327.168 33.1152C328.363 31.9316 329.799 31.0176 331.475 30.373C333.15 29.7168 334.943 29.3887 336.854 29.3887C338.236 29.3887 339.496 29.5586 340.633 29.8984C341.77 30.2266 342.73 30.6016 343.516 31.0234L344.605 30.0566H346.135L346.293 39.1621H344.746C343.867 36.3848 342.812 34.3457 341.582 33.0449C340.352 31.7441 338.852 31.0938 337.082 31.0938C334.879 31.0938 333.203 32.0664 332.055 34.0117C330.906 35.9453 330.332 38.6641 330.332 42.168C330.332 44.1484 330.525 45.8418 330.912 47.248C331.311 48.6426 331.826 49.7676 332.459 50.623C333.139 51.5137 333.941 52.1699 334.867 52.5918C335.793 53.002 336.818 53.207 337.943 53.207C339.584 53.207 341.043 52.7617 342.32 51.8711C343.609 50.9805 344.781 49.6328 345.836 47.8281L347.348 48.7422C346.844 49.7734 346.27 50.6992 345.625 51.5195C344.98 52.3281 344.236 53.0254 343.393 53.6113C342.467 54.2559 341.441 54.7598 340.316 55.123C339.203 55.4863 337.885 55.668 336.361 55.668ZM371.598 32.834C372.828 33.959 373.801 35.3184 374.516 36.9121C375.242 38.5059 375.605 40.3223 375.605 42.3613C375.605 44.1777 375.301 45.9062 374.691 47.5469C374.082 49.1875 373.203 50.5996 372.055 51.7832C370.848 53.0137 369.43 53.9746 367.801 54.666C366.172 55.3457 364.232 55.6855 361.982 55.6855C360.166 55.6855 358.449 55.3867 356.832 54.7891C355.215 54.1914 353.791 53.3242 352.561 52.1875C351.342 51.0742 350.375 49.7207 349.66 48.127C348.945 46.5332 348.588 44.7578 348.588 42.8008C348.588 40.7617 348.934 38.916 349.625 37.2637C350.328 35.5996 351.289 34.1758 352.508 32.9922C353.715 31.832 355.145 30.9414 356.797 30.3203C358.461 29.6875 360.23 29.3711 362.105 29.3711C363.969 29.3711 365.715 29.6758 367.344 30.2852C368.984 30.8945 370.402 31.7441 371.598 32.834ZM367.08 50.6758C367.607 49.6094 367.988 48.4023 368.223 47.0547C368.457 45.707 368.574 44.1836 368.574 42.4844C368.574 41.043 368.469 39.6426 368.258 38.2832C368.059 36.9121 367.713 35.6934 367.221 34.627C366.717 33.5605 366.049 32.7051 365.217 32.0605C364.385 31.416 363.348 31.0938 362.105 31.0938C359.984 31.0938 358.373 32.1016 357.271 34.1172C356.17 36.1211 355.619 38.957 355.619 42.625C355.619 44.1836 355.736 45.6543 355.971 47.0371C356.217 48.4199 356.598 49.627 357.113 50.6582C357.641 51.7012 358.309 52.5156 359.117 53.1016C359.926 53.6758 360.922 53.9629 362.105 53.9629C363.266 53.9629 364.262 53.6699 365.094 53.084C365.926 52.498 366.588 51.6953 367.08 50.6758ZM406.219 55H396.656C395.004 52.4688 393.627 50.4531 392.525 48.9531C391.436 47.4531 390.076 45.7188 388.447 43.75H387.48V51.3262C387.48 51.748 387.557 52.1055 387.709 52.3984C387.873 52.6914 388.178 52.9375 388.623 53.1367C388.846 53.2305 389.191 53.3301 389.66 53.4355C390.141 53.5293 390.551 53.5938 390.891 53.6289V55H377.584V53.6289C377.924 53.5938 378.369 53.5469 378.92 53.4883C379.482 53.418 379.881 53.3359 380.115 53.2422C380.561 53.0547 380.859 52.8203 381.012 52.5391C381.164 52.2461 381.24 51.877 381.24 51.4316V33.8359C381.24 33.4141 381.176 33.0625 381.047 32.7812C380.918 32.5 380.607 32.2539 380.115 32.043C379.74 31.8906 379.295 31.7617 378.779 31.6562C378.275 31.5508 377.877 31.4746 377.584 31.4277V30.0566H391.576C394.705 30.0566 397.078 30.5488 398.695 31.5332C400.324 32.5059 401.139 33.9824 401.139 35.9629C401.139 37.709 400.635 39.1152 399.627 40.1816C398.631 41.2363 397.107 42.0625 395.057 42.6602C395.854 43.6914 396.779 44.8867 397.834 46.2461C398.9 47.6055 400.008 48.9941 401.156 50.4121C401.52 50.8691 402.012 51.4316 402.633 52.0996C403.266 52.7559 403.822 53.1602 404.303 53.3125C404.572 53.3945 404.912 53.4648 405.322 53.5234C405.744 53.582 406.043 53.6172 406.219 53.6289V55ZM394.248 36.4551C394.248 34.791 393.779 33.5781 392.842 32.8164C391.916 32.043 390.592 31.6562 388.869 31.6562H387.48V42.0977H388.816C390.539 42.0977 391.875 41.6465 392.824 40.7441C393.773 39.8418 394.248 38.4121 394.248 36.4551ZM428.271 32.623C429.795 33.6191 431.025 34.9492 431.963 36.6133C432.9 38.2656 433.369 40.293 433.369 42.6953C433.369 44.8047 432.947 46.6445 432.104 48.2148C431.271 49.7734 430.164 51.0508 428.781 52.0469C427.375 53.043 425.775 53.7871 423.982 54.2793C422.201 54.7598 420.332 55 418.375 55H405.807V53.6289C406.182 53.6172 406.65 53.582 407.213 53.5234C407.775 53.4648 408.15 53.3945 408.338 53.3125C408.76 53.1367 409.053 52.9023 409.217 52.6094C409.381 52.3047 409.463 51.9414 409.463 51.5195V33.8359C409.463 33.4375 409.387 33.0801 409.234 32.7637C409.082 32.4355 408.783 32.1719 408.338 31.9727C407.893 31.7734 407.418 31.6387 406.914 31.5684C406.422 31.498 406.041 31.4512 405.771 31.4277V30.0566H419.043C420.461 30.0566 421.979 30.2383 423.596 30.6016C425.213 30.9648 426.771 31.6387 428.271 32.623ZM424.686 50.5C425.26 49.5625 425.676 48.4492 425.934 47.1602C426.203 45.8594 426.338 44.3652 426.338 42.6777C426.338 41.0254 426.162 39.5195 425.811 38.1602C425.459 36.8008 424.943 35.6406 424.264 34.6797C423.584 33.7188 422.734 32.9746 421.715 32.4473C420.707 31.9199 419.559 31.6562 418.27 31.6562C417.859 31.6562 417.391 31.668 416.863 31.6914C416.348 31.7031 415.961 31.7148 415.703 31.7266V50.6582C415.703 51.0801 415.756 51.4551 415.861 51.7832C415.979 52.0996 416.172 52.3809 416.441 52.627C416.711 52.873 417.039 53.0664 417.426 53.207C417.824 53.3359 418.34 53.4004 418.973 53.4004C420.297 53.4004 421.434 53.1543 422.383 52.6621C423.332 52.1699 424.1 51.4492 424.686 50.5ZM445.789 55.668C444.266 55.668 442.842 55.4805 441.518 55.1055C440.205 54.7305 439.092 54.2852 438.178 53.7695L436.965 55H435.471L435.242 45.9824H436.754C437.094 46.8379 437.527 47.7402 438.055 48.6895C438.582 49.6387 439.191 50.4883 439.883 51.2383C440.598 52.0234 441.395 52.6621 442.273 53.1543C443.164 53.6465 444.201 53.8926 445.385 53.8926C446.979 53.8926 448.197 53.5059 449.041 52.7324C449.896 51.9473 450.324 50.9629 450.324 49.7793C450.324 48.8066 449.961 47.9922 449.234 47.3359C448.52 46.668 447.406 46.0938 445.895 45.6133C444.91 45.2969 444.002 45.0039 443.17 44.7344C442.35 44.4648 441.576 44.1895 440.85 43.9082C439.174 43.2402 437.926 42.2852 437.105 41.043C436.297 39.8008 435.893 38.4121 435.893 36.877C435.893 35.9043 436.104 34.9727 436.525 34.082C436.947 33.1797 437.562 32.3711 438.371 31.6562C439.145 30.9883 440.135 30.4434 441.342 30.0215C442.549 29.5996 443.861 29.3887 445.279 29.3887C446.662 29.3887 447.957 29.582 449.164 29.9688C450.371 30.3438 451.32 30.7246 452.012 31.1113L453.084 30.0566H454.613L454.754 38.5645H453.242C452.891 37.6504 452.475 36.7188 451.994 35.7695C451.525 34.8086 451.027 34.0117 450.5 33.3789C449.926 32.6992 449.264 32.1602 448.514 31.7617C447.764 31.3516 446.885 31.1465 445.877 31.1465C444.611 31.1465 443.574 31.5039 442.766 32.2188C441.969 32.9336 441.57 33.8184 441.57 34.873C441.57 35.8691 441.916 36.6836 442.607 37.3164C443.311 37.9492 444.4 38.5059 445.877 38.9863C446.744 39.2793 447.629 39.5723 448.531 39.8652C449.434 40.1582 450.236 40.4395 450.939 40.709C452.639 41.3652 453.928 42.2734 454.807 43.4336C455.697 44.582 456.143 46.0117 456.143 47.7227C456.143 48.8008 455.891 49.8438 455.387 50.8516C454.883 51.8594 454.203 52.6973 453.348 53.3652C452.41 54.1035 451.326 54.6719 450.096 55.0703C448.865 55.4688 447.43 55.668 445.789 55.668Z" fill="url(#paint0_linear_478_2548)"/>
<defs>
<linearGradient id="paint0_linear_478_2548" x1="76.5" y1="42" x2="457.5" y2="42" gradientUnits="userSpaceOnUse">
<stop stop-color="#E5E5E5"/>
<stop offset="1" stop-color="#9D9D9D"/>
</linearGradient>
</defs>
</svg>
