<svg width="61" height="60" viewBox="0 0 61 60" fill="none" xmlns="http://www.w3.org/2000/svg">
<path d="M54.5 46.5L42.5 39L38 43L43 56.5C47.5854 53.7709 51.3165 51.2347 54.5 46.5Z" fill="#E5E5E5"/>
<path d="M18.5 20.5L6.5 13.5C9.62513 8.94297 12.9331 6.39895 18 3.5L22.5 17L18.5 20.5Z" fill="#E5E5E5"/>
<path d="M54.5 46.5L42.5 39L38 43L43 56.5C47.5854 53.7709 51.3165 51.2347 54.5 46.5Z" stroke="#E5E5E5"/>
<path d="M18.5 20.5L6.5 13.5C9.62513 8.94297 12.9331 6.39895 18 3.5L22.5 17L18.5 20.5Z" stroke="#E5E5E5"/>
<path fill-rule="evenodd" clip-rule="evenodd" d="M23.9856 18.9886C27.984 16.5407 33.017 16.5407 37.0153 18.9887C45.1062 23.9423 44.9277 35.7559 36.6908 40.4627C32.855 42.6546 28.146 42.6546 24.3102 40.4628C16.0732 35.756 15.8946 23.9422 23.9856 18.9886ZM35.4347 35.1923C38.2322 32.4665 38.2896 27.9889 35.563 25.1923C32.788 22.3462 28.213 22.3462 25.438 25.1923C22.7114 27.9889 22.7688 32.4665 25.5663 35.1923C28.3118 37.8675 32.6892 37.8675 35.4347 35.1923Z" fill="#E5E5E5" stroke="#E5E5E5"/>
<rect x="1.5" y="1" width="58" height="58" rx="29" stroke="#E5E5E5" stroke-width="3"/>
</svg>
